<?xml version="1.0" encoding="UTF-8"?><svg xmlns="http://www.w3.org/2000/svg" viewBox="0 0 285.46 60.23"><defs><style>.d{fill:#fff;}</style></defs><g id="a"/><g id="b"><g id="c"><g><path class="d" d="M184.58,53.21h-25.73v-19.54h0v-6.86h0V7.26h25.73c.97,0,1.81-.34,2.5-1.03,.69-.69,1.03-1.54,1.03-2.57,0-.91-.34-1.71-1.03-2.4-.69-.69-1.52-1.03-2.5-1.03h-29.26c-.98,0-1.81,.34-2.5,1.03-.69,.69-1.03,1.49-1.03,2.4V56.81c0,.91,.34,1.71,1.03,2.4,.69,.69,1.52,1.03,2.5,1.03h29.26c.97,0,1.81-.34,2.5-1.03,.69-.69,1.03-1.49,1.03-2.4,0-1.03-.34-1.89-1.03-2.57-.69-.69-1.52-1.03-2.5-1.03Z"/><path class="d" d="M174.39,33.66c.97,0,1.79-.33,2.45-.99,.66-.66,.99-1.47,.99-2.44s-.33-1.79-.99-2.44c-.66-.66-1.48-.99-2.45-.99h-11.42v6.86h11.42Z"/></g><g><path class="d" d="M281.93,53.21h-25.73v-19.54h0v-6.86h0V7.26h25.73c.97,0,1.81-.34,2.5-1.03,.69-.69,1.03-1.54,1.03-2.57,0-.91-.34-1.71-1.03-2.4-.69-.69-1.52-1.03-2.5-1.03h-29.26c-.98,0-1.81,.34-2.5,1.03-.69,.69-1.03,1.49-1.03,2.4V56.81c0,.91,.34,1.71,1.03,2.4,.69,.69,1.52,1.03,2.5,1.03h29.26c.97,0,1.81-.34,2.5-1.03,.69-.69,1.03-1.49,1.03-2.4,0-1.03-.34-1.89-1.03-2.57-.69-.69-1.52-1.03-2.5-1.03Z"/><path class="d" d="M271.74,33.66c.97,0,1.79-.33,2.45-.99,.66-.66,.99-1.47,.99-2.44s-.33-1.79-.99-2.44c-.66-.66-1.48-.99-2.45-.99h-11.42v6.86h11.42Z"/></g><g><path class="d" d="M110.73,42.85c1.17,0,2.12-.95,2.12-2.12V3.44c0-1.2-.58-2.2-1.76-3-.22-.15-.47-.26-.73-.32-1.43-.31-2.62,0-3.58,.91-.72,.69-1.08,1.49-1.08,2.41V40.74c0,1.17,.95,2.12,2.12,2.12h2.91Z"/><path class="d" d="M133.15,53.18h-20.31v-3.98c0-1.17-.95-2.12-2.12-2.12h-2.91c-1.17,0-2.12,.95-2.12,2.12v7.59c0,.92,.36,1.72,1.08,2.41,.72,.69,1.56,1.03,2.54,1.03h23.84c1.03,0,1.91-.34,2.62-1.03,.72-.69,1.08-1.49,1.08-2.41,0-1.03-.36-1.89-1.08-2.58-.72-.69-1.59-1.03-2.62-1.03Z"/></g><g><path class="d" d="M21.47,47.03c.28-.96,.25-2.03-.1-2.97L6.2,2.76c-.29-.83-.73-1.47-1.3-1.9-.57-.43-1.18-.64-1.82-.62-.96,.03-1.72,.48-2.28,1.34C.24,2.43-.03,3.35,0,4.32c.02,.58,.09,1.07,.21,1.45L15.36,47.22c1.21,3.31,5.11,3.18,6.1-.2h0Z"/><path class="d" d="M47.02,1.12c-.56-.74-1.35-1.12-2.36-1.12-.59,0-1.19,.23-1.8,.69-.61,.46-1.05,1-1.32,1.63l-11.42,30.79v.02l-.84,2.26-4.39,11.85h0l-3.12,8.39c-.27,.73-.27,1.55,0,2.28h0v-.09c.27,.63,.68,1.19,1.24,1.68,.56,.49,1.19,.73,1.88,.73,.59,0,1.17-.24,1.76-.73,.59-.49,1.01-1.05,1.28-1.68v.09l9.93-26.59c1.6-4.36,3.23-8.76,4.89-13.21,1.65-4.45,3.31-8.88,4.97-13.29,.11-.34,.16-.8,.16-1.38,0-.8-.28-1.58-.84-2.32Z"/></g><path class="d" d="M95.37,55.42L75.68,2.32v.09c-.27-.63-.69-1.19-1.28-1.68-.59-.49-1.17-.73-1.75-.73-.69,0-1.32,.25-1.87,.73-.56,.49-.97,1.05-1.24,1.68v-.09l-4.15,10.93-15.55,42.16c-.11,.46-.16,.92-.16,1.38,0,.8,.29,1.58,.88,2.32,.58,.75,1.36,1.12,2.31,1.12,.53,0,1.1-.24,1.71-.73,.61-.49,1.05-1.02,1.32-1.59,.64-1.66,1.33-3.49,2.07-5.46,.74-1.98,1.41-3.8,1.99-5.46h.05l4.81-12.87,7.82-21.2,6.25,17.21h0l7.8,20.98h0l2.54,6.82v-.09c.27,.63,.7,1.19,1.32,1.68,.61,.49,1.21,.73,1.79,.73,1.01,0,1.79-.36,2.35-1.08,.56-.72,.84-1.51,.84-2.37,0-.46-.05-.92-.16-1.38Z"/><path class="d" d="M237.07,54.63l.08,.09-7.36-11.75-.87-1.38-1.23-1.96c-.7-1.11-.4-2.59,.7-3.3,.18-.12,.35-.23,.53-.36,1.02-.69,1.95-1.42,2.8-2.19,1.51-1.37,2.67-2.88,3.46-4.53,.3-.61,.56-1.21,.79-1.8,.21-.53,.39-1.06,.54-1.58,.31-1.11,.56-2.11,.73-2.99s.27-1.61,.3-2.18c.03-.57,.04-.94,.04-1.11,0-2.92-.53-5.59-1.6-8.02-.3-.7-.65-1.37-1.04-2.02-1.77-2.93-4.19-5.23-7.27-6.88h.09c-4.34-2.01-9.11-2.49-13.92-2.54h-10.38c-1.23,0-2.46,.51-3.18,1.52-.41,.57-.61,1.21-.61,1.92,0,1.15,.57,2.3,1.5,3.01,1.15,.88,2.45,.7,3.82,.7h13.19c.63,0,1.28,.06,1.97,.17,.63,.12,1.31,.28,2.05,.47,.74,.2,1.51,.5,2.31,.9,1.95,1.01,3.42,2.37,4.42,4.07,1.1,1.83,1.64,4.07,1.64,6.7,0,.06-.01,.3-.04,.73-.03,.43-.1,.97-.21,1.63-.11,.66-.28,1.37-.51,2.14-.21,.73-.5,1.44-.87,2.14l-.06,.13c-1.02,1.82-2.42,3.22-4.19,4.19-1.76,.97-3.93,1.45-6.5,1.45h-3.02c-.3,0-.48,.32-.32,.58l13.47,21.48,2.78,4.44c.63,1.08,1.65,1.62,3.08,1.62,.68,0,1.26-.14,1.71-.43,.51-.34,.92-.8,1.24-1.36,.31-.57,.47-1.11,.47-1.63,0-.34-.06-.68-.17-1.02-.11-.35-.23-.68-.34-1.03Z"/></g></g></svg>